<?xml version="1.0" encoding="utf-8"?>
<!-- Generator: Adobe Illustrator 24.2.1, SVG Export Plug-In . SVG Version: 6.00 Build 0)  -->
<svg version="1.1" id="Camada_1" xmlns="http://www.w3.org/2000/svg" xmlns:xlink="http://www.w3.org/1999/xlink" x="0px" y="0px"
	 viewBox="0 0 960 560" style="enable-background:new 0 0 960 560;" xml:space="preserve">
<style type="text/css">
	.st0{fill:#F2F2F2;}
	.st1{fill:none;}
	.st2{fill:none;stroke:#F2F2F2;stroke-width:10;stroke-miterlimit:10;}
</style>
<g>
	<path class="st0" d="M195.46,135.72l-7.03,17.27h16.24c2.17,0,3.26,0.75,3.26,2.25c0,1.06-0.38,1.89-1.15,2.47
		s-1.83,0.88-3.19,0.88h-17.44l-0.28,0.66c-1.09,2.44-1.95,4.15-2.58,5.13s-1.44,1.94-2.44,2.86c-2.61,2.39-5.61,3.59-9,3.59
		c-2.75,0-5.02-0.82-6.81-2.46s-2.68-3.73-2.68-6.26c0-1.58,0.38-3.05,1.15-4.43s1.8-2.45,3.12-3.21c1.7-0.98,4.02-1.48,6.94-1.48
		h8.27l7.01-17.27h-2.81h-0.63c-1.75,0-2.63-0.77-2.63-2.32c0-1.02,0.38-1.82,1.15-2.4s1.83-0.88,3.19-0.88h4.01l1.08-2.65
		c2.05-5.06,5.17-7.59,9.38-7.59c2.14,0,3.92,0.68,5.34,2.03s2.13,3.04,2.13,5.07c0,2.59-1.03,4.7-3.09,6.32s-4.74,2.43-8.04,2.43
		H195.46z M179.55,158.59h-6.16c-3.06,0-4.59,1.09-4.59,3.26c0,0.89,0.34,1.64,1.01,2.24s1.52,0.9,2.53,0.9
		c1.39,0,2.73-0.57,4.02-1.72S178.71,160.56,179.55,158.59z M197.74,130.12h1.08c1.17,0,2.18-0.29,3.01-0.88s1.25-1.3,1.25-2.14
		c0-1.25-0.59-1.88-1.76-1.88c-1.06,0-2.04,1.09-2.93,3.28L197.74,130.12z"/>
	<path class="st0" d="M221.18,147.09h2.58c1.97,0,2.95,0.69,2.95,2.06c0,0.95-0.35,1.7-1.05,2.24s-1.67,0.81-2.91,0.81h-3
		c-1.34,0-2.26-0.52-2.74-1.57c-1.17,1.05-2.3,1.57-3.4,1.57h-2.67c-1.72,0-3.11-0.61-4.16-1.84s-1.58-2.83-1.58-4.82
		c0-3,1.04-5.68,3.11-8.05s4.41-3.55,7.02-3.55c2,0,3.46,0.7,4.38,2.09c0.78-1.17,1.8-1.76,3.07-1.76c0.69,0,1.26,0.22,1.72,0.66
		s0.69,0.98,0.69,1.62c0,0.44-0.13,0.96-0.38,1.57l-0.26,0.63L221.18,147.09z M212.67,147.2h0.59c1.28,0,2.13-0.52,2.55-1.57
		l1.64-4.05c0.22-0.53,0.33-0.98,0.33-1.34c0-0.42-0.21-0.79-0.62-1.1s-0.91-0.47-1.49-0.47c-1.14,0-2.25,0.66-3.33,1.99
		s-1.62,2.7-1.62,4.13C210.72,146.4,211.37,147.2,212.67,147.2z"/>
	<path class="st0" d="M244.96,147.09h2.81c1.98,0,2.98,0.7,2.98,2.09c0,0.95-0.35,1.7-1.05,2.23s-1.67,0.8-2.91,0.8h-4.9
		c-0.95,0-1.75-0.29-2.4-0.87s-0.97-1.3-0.97-2.18c0-0.53,0.22-1.33,0.66-2.39l2.06-5.11c0.22-0.53,0.34-0.96,0.35-1.29
		c0.02-0.38-0.14-0.7-0.46-0.96s-0.73-0.4-1.23-0.4c-1.61,0-2.91,1.21-3.89,3.63l-2.77,6.8c-0.83,2.06-2.06,3.09-3.7,3.09
		c-0.67,0-1.24-0.2-1.71-0.61s-0.7-0.91-0.7-1.5c0-0.44,0.13-0.96,0.38-1.57l0.26-0.63l4.73-11.67c0.61-1.52,1.65-2.27,3.12-2.27
		c1.2,0,2.06,0.53,2.58,1.59c1.67-1.28,3.27-1.92,4.78-1.92c1.47,0,2.68,0.42,3.63,1.27s1.43,1.91,1.43,3.21
		c0,0.72-0.17,1.51-0.52,2.37L244.96,147.09z"/>
	<path class="st0" d="M265.05,152.19h-6.8c-1.95,0-3.54-0.69-4.77-2.06s-1.84-3.16-1.84-5.34c0-2.92,1.01-5.46,3.02-7.62
		s4.38-3.23,7.1-3.23c1.84,0,3.34,0.52,4.5,1.55s1.73,2.38,1.73,4.03c0,1.16-0.29,2.11-0.87,2.85s-1.32,1.11-2.23,1.11
		c-1.44,0-2.16-0.67-2.16-2.02c0-0.2,0-0.38,0-0.52c0.02-0.17,0.02-0.34,0.02-0.49c0-1.09-0.54-1.64-1.62-1.64
		c-1.02,0-1.94,0.54-2.78,1.62s-1.25,2.28-1.25,3.61c0,1.11,0.34,1.89,1.02,2.36s1.83,0.69,3.46,0.69h4.43
		c1.98,0,2.98,0.7,2.98,2.09c0,0.94-0.36,1.68-1.07,2.21S266.27,152.19,265.05,152.19z"/>
	<path class="st0" d="M281.15,135.27c1.64-0.89,2.99-1.34,4.05-1.34c1.5,0,2.73,0.42,3.69,1.25s1.44,1.9,1.44,3.2
		c0,0.78-0.19,1.63-0.56,2.55l-2.46,6.14h2.7c1.97,0,2.95,0.7,2.95,2.09c0,0.95-0.35,1.7-1.04,2.23s-1.67,0.8-2.92,0.8h-4.71
		c-1,0-1.84-0.29-2.52-0.86s-1.02-1.27-1.02-2.1c0-0.56,0.18-1.28,0.54-2.16l2.16-5.3c0.27-0.67,0.4-1.18,0.4-1.52
		c0-0.89-0.59-1.34-1.78-1.34c-1.59,0-2.94,1.36-4.03,4.08l-2.63,6.45c-0.83,2.05-2.05,3.07-3.68,3.07c-0.64,0-1.19-0.2-1.64-0.61
		s-0.68-0.9-0.68-1.48c0-0.44,0.12-0.95,0.35-1.55l0.26-0.63l10.2-25.15c0.89-2.16,2.11-3.23,3.66-3.23c0.64,0,1.19,0.21,1.65,0.64
		s0.69,0.95,0.69,1.56c0,0.5-0.2,1.24-0.61,2.23L281.15,135.27z"/>
	<path class="st0" d="M299.48,145.33c0,1.17,0.88,1.76,2.65,1.76h6.96c1.97,0,2.95,0.7,2.95,2.09c0,0.95-0.35,1.7-1.04,2.23
		s-1.67,0.8-2.92,0.8h-6.63c-2.47,0-4.35-0.61-5.64-1.83s-1.93-3-1.93-5.34c0-3.02,1.02-5.62,3.06-7.8s4.46-3.28,7.28-3.28
		c2.05,0,3.69,0.54,4.93,1.61s1.86,2.48,1.86,4.23c0,2.11-0.86,3.67-2.58,4.69c-0.95,0.58-2.38,0.87-4.27,0.87H299.48z
		 M300.61,141.06h2.58c1.67,0,2.48-0.37,2.44-1.1c-0.05-0.83-0.59-1.24-1.62-1.24C302.57,138.72,301.43,139.5,300.61,141.06z"/>
	<path class="st0" d="M320.74,140.66l-0.45,1.08c-0.69,1.55-1.66,2.32-2.93,2.32c-0.64,0-1.21-0.22-1.72-0.67s-0.76-0.96-0.76-1.54
		c0-0.55,0.23-1.27,0.68-2.18l3.12-6.33c0.77-1.52,1.72-2.27,2.86-2.27c0.61,0,1.13,0.2,1.57,0.6s0.66,0.87,0.66,1.42
		c0,0.14-0.05,0.45-0.14,0.91c-0.06,0.34-0.09,0.65-0.09,0.91c0,0.98,0.37,1.99,1.1,3.02l1.34,1.85c1.36,1.89,2.04,3.72,2.04,5.48
		c0,1.97-0.73,3.61-2.2,4.93s-3.3,1.98-5.48,1.98h-4.9c-1.98,0-2.98-0.69-2.98-2.06c0-0.95,0.35-1.7,1.05-2.24s1.67-0.81,2.91-0.81
		h2.72c2.17,0,3.26-0.79,3.26-2.37c0-0.58-0.2-1.26-0.61-2.04L320.74,140.66z"/>
	<path class="st0" d="M166.16,183.4h-2.32h-0.63c-1.73,0-2.6-0.75-2.6-2.25c0-0.95,0.36-1.75,1.07-2.39s1.58-0.96,2.61-0.96h0.63
		h6.87c4.59,0,8.12,1.09,10.57,3.28s3.68,5.34,3.68,9.45c0,6.27-2.09,12.01-6.26,17.23c-2.36,2.94-5.03,5.08-8,6.42
		s-6.54,2.02-10.7,2.02h-1.64l-0.28,0.66c-1.09,2.44-1.95,4.15-2.58,5.13s-1.44,1.94-2.44,2.86c-2.61,2.39-5.6,3.59-8.98,3.59
		c-2.78,0-5.07-0.82-6.86-2.47s-2.68-3.75-2.68-6.29c0-1.56,0.38-3.03,1.15-4.39s1.8-2.43,3.12-3.2c1.7-0.98,4.01-1.48,6.91-1.48
		h8.32L166.16,183.4z M152.84,216.19h-6.21c-3.06,0-4.59,1.09-4.59,3.26c0,0.89,0.34,1.64,1.01,2.25s1.49,0.91,2.46,0.91
		c1.44,0,2.8-0.57,4.1-1.7S151.98,218.21,152.84,216.19z M161.7,210.59h0.94c4.84,0,8.9-2.15,12.16-6.45
		c1.58-2.06,2.82-4.3,3.74-6.7s1.37-4.63,1.37-6.68c0-2.28-0.64-4.08-1.92-5.39s-3.02-1.97-5.23-1.97L161.7,210.59z"/>
	<path class="st0" d="M197.33,191.54c2.27,0,4.13,0.72,5.59,2.16s2.19,3.27,2.19,5.48c0,1.67-0.38,3.33-1.15,4.98
		s-1.76,2.96-2.98,3.95c-0.81,0.64-1.65,1.08-2.52,1.32s-2.08,0.36-3.64,0.36c-2.55,0-4.27-0.3-5.16-0.91
		c-2.09-1.44-3.14-3.56-3.14-6.38c0-2.97,1.07-5.54,3.21-7.71S194.41,191.54,197.33,191.54z M196.77,196.53
		c-1.16,0-2.21,0.57-3.16,1.71s-1.43,2.4-1.43,3.77c0,1.81,1.02,2.72,3.05,2.72c1.19,0,2.1-0.37,2.74-1.1
		c1.06-1.2,1.59-2.58,1.59-4.13c0-0.89-0.26-1.61-0.77-2.16S197.59,196.53,196.77,196.53z"/>
	<path class="st0" d="M223.72,204.69h2.81c1.98,0,2.98,0.7,2.98,2.09c0,0.95-0.35,1.7-1.05,2.23s-1.67,0.8-2.91,0.8h-4.9
		c-0.95,0-1.75-0.29-2.4-0.87s-0.97-1.3-0.97-2.18c0-0.53,0.22-1.33,0.66-2.39l2.06-5.11c0.22-0.53,0.34-0.96,0.35-1.29
		c0.02-0.38-0.14-0.7-0.46-0.96s-0.73-0.4-1.23-0.4c-1.61,0-2.91,1.21-3.89,3.63l-2.77,6.8c-0.83,2.06-2.06,3.09-3.7,3.09
		c-0.67,0-1.24-0.2-1.71-0.61s-0.7-0.91-0.7-1.5c0-0.44,0.13-0.96,0.38-1.57l0.26-0.63l4.73-11.67c0.61-1.52,1.65-2.27,3.12-2.27
		c1.2,0,2.06,0.53,2.58,1.59c1.67-1.28,3.27-1.92,4.78-1.92c1.47,0,2.68,0.42,3.63,1.27s1.43,1.91,1.43,3.21
		c0,0.72-0.17,1.51-0.52,2.37L223.72,204.69z"/>
	<path class="st0" d="M277.41,196.6l4.95,11.74c0.64,1.52,1.48,2.27,2.51,2.27l0.94-0.02h9.8c2.16,0,3.23,0.73,3.23,2.2
		c0,1.08-0.38,1.91-1.13,2.51s-1.82,0.89-3.21,0.89h-10.8c-2.97,0-5.03-1.41-6.19-4.22l-6.77-16.31l-3.14,7.73
		c-1.5,3.7-2.57,6.21-3.2,7.51s-1.36,2.51-2.19,3.62c-2.98,4.03-6.74,6.05-11.27,6.05c-3.3,0-5.97-1.03-8.02-3.09
		s-3.07-4.77-3.07-8.11c0-4.36,1.61-8.2,4.83-11.51c1.73-1.77,3.91-3.19,6.52-4.28s5.2-1.63,7.76-1.63c1.22,0,2.21,0.28,2.96,0.83
		s1.14,1.28,1.14,2.17c0,0.97-0.41,1.74-1.22,2.32c-0.47,0.33-1.38,0.56-2.72,0.7c-3.13,0.28-5.63,0.99-7.52,2.13
		c-1.59,0.97-2.85,2.22-3.77,3.75s-1.38,3.13-1.38,4.8c0,1.77,0.45,3.16,1.35,4.18s2.12,1.54,3.67,1.54c1.91,0,3.56-0.8,4.96-2.41
		s2.93-4.47,4.61-8.58l8.11-19.99h-2.41c-2.16,0-3.23-0.74-3.23-2.23c0-1.08,0.38-1.91,1.13-2.5s1.81-0.88,3.19-0.88h7.78
		c2.03,0,3.52,0.12,4.46,0.35s1.86,0.72,2.73,1.45c1.81,1.52,2.72,3.65,2.72,6.4c0,2.5-0.74,4.72-2.21,6.67
		S279.84,195.93,277.41,196.6z M272.14,192.19l0.68-0.05c1.78-0.11,3.11-0.45,3.98-1.03c1.69-1.11,2.53-2.6,2.53-4.48
		c0-2.16-1.03-3.23-3.09-3.23h-0.52L272.14,192.19z"/>
	<path class="st0" d="M303.1,204.69h2.72c1.08,0,1.84,0.16,2.3,0.48s0.68,0.85,0.68,1.58c0,0.95-0.35,1.7-1.04,2.24
		s-1.67,0.81-2.92,0.81h-4.2c-1.31,0-2.19-0.51-2.63-1.52c-0.86,1.02-1.94,1.52-3.23,1.52h-3.42c-1.38,0-2.52-0.43-3.42-1.29
		s-1.36-1.95-1.36-3.26c0-0.75,0.2-1.63,0.61-2.63l3.19-7.83c0.89-2.17,2.11-3.26,3.66-3.26c0.67,0,1.24,0.21,1.71,0.64
		s0.7,0.96,0.7,1.58c0,0.47-0.13,1.01-0.38,1.62l-0.26,0.63l-2.46,6.02l-0.26,0.7c-0.14,0.41-0.22,0.71-0.23,0.91
		c-0.03,0.7,0.42,1.05,1.36,1.05c1.94,0,3.23-0.78,3.87-2.34l2.93-7.22c0.88-2.19,2.11-3.28,3.7-3.28c0.66,0,1.22,0.22,1.69,0.66
		s0.7,0.96,0.7,1.57c0,0.48-0.2,1.23-0.61,2.25L303.1,204.69z"/>
	<path class="st0" d="M325.67,204.69h2.58c1.97,0,2.95,0.69,2.95,2.06c0,0.95-0.35,1.7-1.05,2.24s-1.67,0.81-2.91,0.81h-3
		c-1.34,0-2.26-0.52-2.74-1.57c-1.17,1.05-2.3,1.57-3.4,1.57h-2.67c-1.72,0-3.11-0.61-4.16-1.84s-1.58-2.83-1.58-4.82
		c0-3,1.04-5.68,3.11-8.05s4.41-3.55,7.02-3.55c2,0,3.46,0.7,4.38,2.09c0.78-1.17,1.8-1.76,3.07-1.76c0.69,0,1.26,0.22,1.72,0.66
		s0.69,0.98,0.69,1.62c0,0.44-0.13,0.96-0.38,1.57l-0.26,0.63L325.67,204.69z M317.16,204.8h0.59c1.28,0,2.13-0.52,2.55-1.57
		l1.64-4.05c0.22-0.53,0.33-0.98,0.33-1.34c0-0.42-0.21-0.79-0.62-1.1s-0.91-0.47-1.49-0.47c-1.14,0-2.25,0.66-3.33,1.99
		s-1.62,2.7-1.62,4.13C315.22,204,315.87,204.8,317.16,204.8z"/>
	<path class="st0" d="M349.46,204.69h2.81c1.98,0,2.98,0.7,2.98,2.09c0,0.95-0.35,1.7-1.05,2.23s-1.67,0.8-2.91,0.8h-4.9
		c-0.95,0-1.75-0.29-2.4-0.87s-0.97-1.3-0.97-2.18c0-0.53,0.22-1.33,0.66-2.39l2.06-5.11c0.22-0.53,0.34-0.96,0.35-1.29
		c0.02-0.38-0.14-0.7-0.46-0.96s-0.73-0.4-1.23-0.4c-1.61,0-2.91,1.21-3.89,3.63l-2.77,6.8c-0.83,2.06-2.06,3.09-3.7,3.09
		c-0.67,0-1.24-0.2-1.71-0.61s-0.7-0.91-0.7-1.5c0-0.44,0.13-0.96,0.38-1.57l0.26-0.63l4.73-11.67c0.61-1.52,1.65-2.27,3.12-2.27
		c1.2,0,2.06,0.53,2.58,1.59c1.67-1.28,3.27-1.92,4.78-1.92c1.47,0,2.68,0.42,3.63,1.27s1.43,1.91,1.43,3.21
		c0,0.72-0.17,1.51-0.52,2.37L349.46,204.69z"/>
</g>
<g>
	<rect x="326.36" y="149.51" class="st1" width="17.45" height="0"/>
</g>
<ellipse class="st2" cx="247.17" cy="180.72" rx="146.98" ry="91.61"/>
<g>
</g>
<g>
</g>
<g>
</g>
<g>
</g>
<g>
</g>
</svg>
